<svg xmlns="http://www.w3.org/2000/svg" viewBox="0 0 512 213.33333333333334" clip-path="url(#clip)" width="512" height="213.33333333333334"><defs><clipPath id="clip" clipPathUnits="objectBoundingBox"><rect x="0" y="0" width="512" height="213.33333333333334"/></clipPath></defs><rect x="0" y="0" width="512" height="213.33333333333334" fill="rgb(179, 183, 182)"/><path d="M353,560L-68,92L590,63Z" fill="rgb(57, 83, 66)" fill-opacity="0.82"/><path d="M342,369L301,192L111,166Z" fill="rgb(157, 153, 147)" fill-opacity="0.92"/><path d="M495,165L527,198L486,191Z" fill="rgb(248, 252, 242)" fill-opacity="0.57"/><path d="M441,155L525,178L418,159Z" fill="rgb(255, 255, 238)" fill-opacity="0.67"/><path d="M24,380L-3,194L255,192Z" fill="rgb(154, 154, 149)" fill-opacity="0.90"/><path d="M546,44L196,-394L-26,56Z" fill="rgb(247, 253, 255)" fill-opacity="0.98"/><path d="M307,112L124,158L440,165Z" fill="rgb(33, 54, 23)" fill-opacity="0.80"/><path d="M56,49L149,112L264,43Z" fill="rgb(101, 180, 224)" fill-opacity="0.52"/><path d="M375,123L110,80L430,36Z" fill="rgb(99, 172, 215)" fill-opacity="0.50"/><path d="M-29,175L-3,84L295,128Z" fill="rgb(23, 52, 22)" fill-opacity="0.74"/><path d="M488,166L487,177L411,150Z" fill="rgb(255, 255, 236)" fill-opacity="0.52"/><path d="M381,123L317,203L470,211Z" fill="rgb(53, 61, 57)" fill-opacity="0.98"/><path d="M358,66L511,143L530,53Z" fill="rgb(74, 130, 175)" fill-opacity="0.69"/><path d="M548,181L447,123L430,152Z" fill="rgb(35, 48, 1)" fill-opacity="0.76"/><path d="M385,103L422,48L408,103Z" fill="rgb(27, 39, 57)" fill-opacity="0.85"/><path d="M9,231L-31,138L75,173Z" fill="rgb(129, 134, 111)" fill-opacity="0.59"/><path d="M178,87L-36,46L75,96Z" fill="rgb(123, 187, 215)" fill-opacity="0.62"/><path d="M390,193L385,164L398,151Z" fill="rgb(172, 181, 213)" fill-opacity="0.48"/><path d="M32,162L208,167L153,125Z" fill="rgb(36, 58, 18)" fill-opacity="1.00"/><path d="M454,36L265,49L387,69Z" fill="rgb(178, 244, 255)" fill-opacity="0.58"/><path d="M480,179L471,194L498,176Z" fill="rgb(0, 0, 0)" fill-opacity="0.52"/><path d="M465,137L469,100L396,107Z" fill="rgb(150, 187, 155)" fill-opacity="0.45"/><path d="M429,113L241,125L151,90Z" fill="rgb(114, 146, 106)" fill-opacity="0.62"/><path d="M387,162L409,169L386,178Z" fill="rgb(132, 142, 170)" fill-opacity="0.59"/><path d="M501,208L478,221L469,206Z" fill="rgb(247, 205, 203)" fill-opacity="0.50"/><path d="M413,97L414,81L410,96Z" fill="rgb(0, 0, 0)" fill-opacity="0.49"/><path d="M428,64L413,44L578,45Z" fill="rgb(128, 206, 255)" fill-opacity="0.69"/><path d="M509,183L501,179L541,148Z" fill="rgb(119, 173, 10)" fill-opacity="0.71"/><path d="M451,38L431,134L396,121Z" fill="rgb(126, 180, 190)" fill-opacity="0.31"/><path d="M453,191L420,176L457,210Z" fill="rgb(5, 0, 7)" fill-opacity="0.59"/><path d="M326,173L332,160L359,194Z" fill="rgb(5, 1, 2)" fill-opacity="0.70"/><path d="M421,184L446,199L386,193Z" fill="rgb(131, 146, 114)" fill-opacity="0.46"/><path d="M424,58L412,47L415,67Z" fill="rgb(5, 23, 56)" fill-opacity="0.51"/><path d="M61,178L52,157L91,167Z" fill="rgb(197, 184, 206)" fill-opacity="0.35"/><path d="M261,165L347,128L220,152Z" fill="rgb(18, 39, 12)" fill-opacity="0.71"/><path d="M158,39L224,46L25,74Z" fill="rgb(142, 193, 226)" fill-opacity="0.85"/><path d="M283,193L182,170L244,157Z" fill="rgb(166, 160, 129)" fill-opacity="0.41"/><path d="M448,157L488,124L507,158Z" fill="rgb(44, 55, 0)" fill-opacity="0.57"/><path d="M234,175L259,183L215,190Z" fill="rgb(64, 88, 46)" fill-opacity="0.56"/><path d="M363,211L375,162L378,235Z" fill="rgb(5, 9, 22)" fill-opacity="0.79"/><path d="M381,118L387,156L406,84Z" fill="rgb(25, 32, 44)" fill-opacity="0.78"/><path d="M305,64L276,93L360,70Z" fill="rgb(48, 108, 170)" fill-opacity="0.52"/><path d="M408,89L420,61L570,60Z" fill="rgb(88, 141, 185)" fill-opacity="0.69"/><path d="M412,172L434,182L378,189Z" fill="rgb(10, 9, 15)" fill-opacity="0.66"/><path d="M341,197L323,158L252,165Z" fill="rgb(132, 131, 100)" fill-opacity="0.64"/><path d="M307,188L244,196L351,205Z" fill="rgb(87, 104, 67)" fill-opacity="0.64"/><path d="M36,64L-85,-54L165,39Z" fill="rgb(255, 255, 255)" fill-opacity="0.71"/><path d="M369,174L347,166L364,186Z" fill="rgb(197, 178, 176)" fill-opacity="0.46"/><path d="M469,171L428,174L533,221Z" fill="rgb(60, 72, 0)" fill-opacity="0.37"/><path d="M166,196L134,199L158,213Z" fill="rgb(64, 89, 64)" fill-opacity="0.50"/><path d="M409,148L409,155L453,162Z" fill="rgb(240, 255, 131)" fill-opacity="0.51"/><path d="M404,147L460,123L451,158Z" fill="rgb(23, 34, 0)" fill-opacity="0.63"/><path d="M205,208L166,178L170,217Z" fill="rgb(246, 235, 254)" fill-opacity="0.33"/><path d="M77,7L681,-24L414,53Z" fill="rgb(255, 255, 255)" fill-opacity="0.42"/><path d="M154,168L174,167L142,149Z" fill="rgb(14, 22, 0)" fill-opacity="0.54"/><path d="M377,91L359,82L401,85Z" fill="rgb(212, 248, 199)" fill-opacity="0.47"/><path d="M113,121L120,96L-31,84Z" fill="rgb(34, 71, 81)" fill-opacity="0.75"/><path d="M103,168L56,159L59,128Z" fill="rgb(9, 23, 0)" fill-opacity="0.66"/><path d="M465,129L464,111L523,137Z" fill="rgb(167, 180, 82)" fill-opacity="0.37"/><path d="M492,183L546,222L507,181Z" fill="rgb(238, 240, 255)" fill-opacity="0.63"/><path d="M475,182L458,171L450,172Z" fill="rgb(214, 255, 96)" fill-opacity="0.57"/><path d="M86,56L-29,55L-23,96Z" fill="rgb(143, 210, 238)" fill-opacity="0.69"/><path d="M194,176L93,207L88,176Z" fill="rgb(122, 131, 110)" fill-opacity="0.77"/><path d="M506,173L488,163L488,180Z" fill="rgb(246, 255, 189)" fill-opacity="0.36"/><path d="M69,116L14,128L-43,97Z" fill="rgb(0, 15, 1)" fill-opacity="0.55"/><path d="M512,172L476,165L524,182Z" fill="rgb(255, 255, 198)" fill-opacity="0.46"/><path d="M352,208L406,212L410,191Z" fill="rgb(8, 9, 0)" fill-opacity="0.46"/><path d="M215,161L196,165L194,120Z" fill="rgb(41, 60, 7)" fill-opacity="0.62"/><path d="M453,201L442,217L417,199Z" fill="rgb(2, 0, 2)" fill-opacity="0.55"/><path d="M162,201L208,190L132,187Z" fill="rgb(191, 185, 188)" fill-opacity="0.63"/><path d="M324,164L346,159L358,173Z" fill="rgb(17, 0, 18)" fill-opacity="0.43"/><path d="M464,213L452,215L461,190Z" fill="rgb(166, 159, 127)" fill-opacity="0.55"/><path d="M258,72L176,76L153,110Z" fill="rgb(68, 117, 154)" fill-opacity="0.54"/><path d="M326,109L389,122L383,139Z" fill="rgb(112, 132, 68)" fill-opacity="0.54"/><path d="M188,91L192,109L115,103Z" fill="rgb(99, 131, 100)" fill-opacity="0.67"/><path d="M398,182L381,182L401,176Z" fill="rgb(106, 105, 114)" fill-opacity="0.54"/><path d="M60,202L55,263L103,209Z" fill="rgb(201, 197, 208)" fill-opacity="0.59"/><path d="M194,204L181,209L211,213Z" fill="rgb(219, 217, 231)" fill-opacity="0.53"/><path d="M283,204L305,279L347,203Z" fill="rgb(152, 133, 126)" fill-opacity="0.69"/><path d="M317,175L290,147L280,170Z" fill="rgb(151, 143, 129)" fill-opacity="0.39"/><path d="M292,68L172,49L291,46Z" fill="rgb(115, 195, 240)" fill-opacity="0.45"/><path d="M65,203L121,202L21,172Z" fill="rgb(40, 92, 0)" fill-opacity="0.20"/><path d="M403,181L392,200L412,186Z" fill="rgb(160, 157, 147)" fill-opacity="0.32"/><path d="M383,181L382,189L377,181Z" fill="rgb(162, 197, 252)" fill-opacity="0.44"/><path d="M387,184L390,152L396,156Z" fill="rgb(176, 191, 198)" fill-opacity="0.61"/><path d="M354,168L355,182L335,169Z" fill="rgb(162, 152, 142)" fill-opacity="0.46"/><path d="M4,61L103,54L-19,53Z" fill="rgb(206, 255, 255)" fill-opacity="0.76"/><path d="M14,165L99,162L26,178Z" fill="rgb(154, 154, 155)" fill-opacity="0.41"/><path d="M263,56L7,83L121,98Z" fill="rgb(122, 168, 186)" fill-opacity="0.63"/><path d="M299,68L274,98L184,67Z" fill="rgb(110, 159, 182)" fill-opacity="0.67"/><path d="M385,117L385,98L392,101Z" fill="rgb(142, 176, 165)" fill-opacity="0.52"/><path d="M175,106L162,123L229,116Z" fill="rgb(23, 57, 64)" fill-opacity="0.71"/><path d="M24,236L1,203L14,206Z" fill="rgb(191, 194, 214)" fill-opacity="0.46"/><path d="M382,145L404,142L417,164Z" fill="rgb(4, 14, 0)" fill-opacity="0.58"/><path d="M394,168L385,161L396,163Z" fill="rgb(37, 44, 71)" fill-opacity="0.50"/><path d="M230,167L178,166L108,182Z" fill="rgb(179, 173, 165)" fill-opacity="0.41"/><path d="M121,164L88,160L128,178Z" fill="rgb(70, 90, 37)" fill-opacity="0.56"/><path d="M495,173L485,179L486,170Z" fill="rgb(99, 168, 13)" fill-opacity="0.54"/><path d="M438,134L410,97L390,142Z" fill="rgb(140, 166, 87)" fill-opacity="0.37"/><path d="M210,178L158,175L179,182Z" fill="rgb(58, 73, 44)" fill-opacity="0.45"/><path d="M503,152L489,132L549,136Z" fill="rgb(175, 195, 89)" fill-opacity="0.38"/><path d="M251,-48L207,47L299,48Z" fill="rgb(255, 255, 255)" fill-opacity="0.66"/><path d="M465,111L522,135L527,85Z" fill="rgb(39, 83, 115)" fill-opacity="0.42"/><path d="M101,156L112,167L163,166Z" fill="rgb(6, 17, 0)" fill-opacity="0.44"/><path d="M505,183L495,196L497,179Z" fill="rgb(255, 252, 255)" fill-opacity="0.50"/><path d="M12,192L82,197L20,200Z" fill="rgb(232, 220, 241)" fill-opacity="0.37"/><path d="M405,100L409,93L402,93Z" fill="rgb(126, 154, 195)" fill-opacity="0.51"/><path d="M440,168L439,163L458,174Z" fill="rgb(220, 255, 113)" fill-opacity="0.56"/><path d="M487,185L471,186L484,176Z" fill="rgb(0, 0, 0)" fill-opacity="0.51"/><path d="M301,194L293,178L313,188Z" fill="rgb(141, 138, 118)" fill-opacity="0.51"/><path d="M412,166L405,148L393,164Z" fill="rgb(4, 17, 0)" fill-opacity="0.44"/><path d="M298,136L351,153L299,159Z" fill="rgb(8, 26, 6)" fill-opacity="0.47"/><path d="M473,142L488,122L490,140Z" fill="rgb(34, 41, 0)" fill-opacity="0.65"/><path d="M520,203L490,193L515,191Z" fill="rgb(133, 126, 138)" fill-opacity="0.59"/><path d="M-13,171L6,185L80,188Z" fill="rgb(65, 101, 45)" fill-opacity="0.51"/><path d="M433,177L425,156L406,168Z" fill="rgb(153, 164, 162)" fill-opacity="0.27"/><path d="M259,174L267,162L296,166Z" fill="rgb(142, 155, 132)" fill-opacity="0.56"/><path d="M366,207L364,189L283,195Z" fill="rgb(60, 80, 42)" fill-opacity="0.57"/><path d="M34,187L43,187L34,192Z" fill="rgb(232, 235, 226)" fill-opacity="0.54"/><path d="M382,94L426,41L305,58Z" fill="rgb(124, 186, 233)" fill-opacity="0.25"/><path d="M378,175L388,171L386,162Z" fill="rgb(0, 0, 17)" fill-opacity="0.54"/><path d="M416,71L411,59L422,54Z" fill="rgb(0, 0, 0)" fill-opacity="0.44"/><path d="M364,198L371,186L354,186Z" fill="rgb(0, 0, 3)" fill-opacity="0.48"/><path d="M399,153L393,154L390,162Z" fill="rgb(246, 252, 255)" fill-opacity="0.60"/><path d="M427,161L406,157L416,149Z" fill="rgb(158, 255, 0)" fill-opacity="0.34"/><path d="M158,169L140,169L154,182Z" fill="rgb(210, 204, 211)" fill-opacity="0.38"/><path d="M435,154L416,152L439,162Z" fill="rgb(246, 255, 255)" fill-opacity="0.53"/><path d="M215,164L230,163L230,167Z" fill="rgb(194, 185, 183)" fill-opacity="0.54"/><path d="M179,181L190,187L235,188Z" fill="rgb(112, 122, 94)" fill-opacity="0.48"/><path d="M380,142L380,96L336,98Z" fill="rgb(98, 114, 86)" fill-opacity="0.39"/><path d="M62,133L101,161L87,130Z" fill="rgb(80, 105, 24)" fill-opacity="0.49"/><path d="M12,201L47,213L50,203Z" fill="rgb(87, 100, 94)" fill-opacity="0.55"/><path d="M480,201L490,192L497,178Z" fill="rgb(66, 75, 71)" fill-opacity="0.56"/><path d="M169,204L144,197L139,206Z" fill="rgb(38, 71, 36)" fill-opacity="0.41"/><path d="M325,163L348,164L329,177Z" fill="rgb(2, 0, 5)" fill-opacity="0.55"/><path d="M459,200L458,215L445,212Z" fill="rgb(140, 127, 118)" fill-opacity="0.55"/><path d="M441,167L443,157L431,166Z" fill="rgb(128, 185, 53)" fill-opacity="0.49"/><path d="M160,184L170,182L165,199Z" fill="rgb(197, 187, 191)" fill-opacity="0.70"/><path d="M217,142L223,156L163,150Z" fill="rgb(63, 90, 18)" fill-opacity="0.63"/><path d="M212,158L211,213L226,165Z" fill="rgb(136, 138, 120)" fill-opacity="0.49"/><path d="M-4,170L-12,183L18,170Z" fill="rgb(168, 164, 165)" fill-opacity="0.60"/><path d="M17,200L22,188L11,186Z" fill="rgb(181, 179, 188)" fill-opacity="0.56"/><path d="M393,171L392,179L413,178Z" fill="rgb(12, 12, 25)" fill-opacity="0.54"/><path d="M485,164L468,163L483,174Z" fill="rgb(244, 255, 255)" fill-opacity="0.48"/><path d="M432,154L445,122L411,142Z" fill="rgb(39, 56, 0)" fill-opacity="0.42"/><path d="M440,107L545,90L407,83Z" fill="rgb(63, 112, 153)" fill-opacity="0.61"/><path d="M460,160L433,152L468,145Z" fill="rgb(0, 6, 5)" fill-opacity="0.50"/><path d="M128,121L173,109L96,95Z" fill="rgb(15, 48, 75)" fill-opacity="0.43"/><path d="M455,123L477,138L436,139Z" fill="rgb(91, 111, 33)" fill-opacity="0.48"/><path d="M493,169L495,174L476,170Z" fill="rgb(177, 255, 52)" fill-opacity="0.44"/><path d="M456,215L392,198L429,201Z" fill="rgb(12, 9, 13)" fill-opacity="0.51"/><path d="M455,205L449,188L436,209Z" fill="rgb(0, 0, 0)" fill-opacity="0.54"/><path d="M80,185L59,170L3,171Z" fill="rgb(145, 152, 136)" fill-opacity="0.51"/><path d="M378,112L389,129L398,122Z" fill="rgb(11, 15, 21)" fill-opacity="0.61"/><path d="M299,126L346,92L229,106Z" fill="rgb(125, 155, 112)" fill-opacity="0.29"/><path d="M351,155L383,160L313,161Z" fill="rgb(77, 78, 95)" fill-opacity="0.63"/><path d="M151,97L169,111L110,95Z" fill="rgb(98, 123, 86)" fill-opacity="0.59"/><path d="M21,207L-28,184L21,199Z" fill="rgb(74, 93, 77)" fill-opacity="0.47"/><path d="M486,175L509,179L482,180Z" fill="rgb(60, 83, 82)" fill-opacity="0.53"/><path d="M238,199L238,187L206,193Z" fill="rgb(189, 174, 175)" fill-opacity="0.59"/><path d="M463,175L486,175L447,166Z" fill="rgb(28, 45, 13)" fill-opacity="0.51"/><path d="M361,162L386,172L354,168Z" fill="rgb(6, 4, 21)" fill-opacity="0.57"/><path d="M312,91L361,96L314,97Z" fill="rgb(170, 185, 184)" fill-opacity="0.52"/><path d="M299,53L245,44L481,42Z" fill="rgb(197, 252, 255)" fill-opacity="0.68"/><path d="M380,198L365,196L388,191Z" fill="rgb(0, 0, 0)" fill-opacity="0.50"/><path d="M246,95L233,74L195,90Z" fill="rgb(53, 109, 175)" fill-opacity="0.50"/><path d="M73,144L90,165L53,160Z" fill="rgb(6, 18, 3)" fill-opacity="0.63"/><path d="M280,112L296,125L260,137Z" fill="rgb(59, 92, 52)" fill-opacity="0.46"/><path d="M412,58L406,91L417,65Z" fill="rgb(0, 0, 10)" fill-opacity="0.54"/><path d="M476,179L479,184L462,175Z" fill="rgb(174, 201, 117)" fill-opacity="0.55"/><path d="M269,159L314,158L296,167Z" fill="rgb(84, 92, 67)" fill-opacity="0.69"/><path d="M392,187L389,202L382,179Z" fill="rgb(90, 102, 122)" fill-opacity="0.44"/><path d="M473,172L495,168L469,163Z" fill="rgb(242, 255, 250)" fill-opacity="0.57"/><path d="M452,184L467,215L498,190Z" fill="rgb(87, 98, 49)" fill-opacity="0.39"/><path d="M455,178L412,156L460,176Z" fill="rgb(68, 113, 0)" fill-opacity="0.60"/><path d="M69,198L135,197L97,191Z" fill="rgb(171, 164, 168)" fill-opacity="0.57"/><path d="M404,172L403,166L394,186Z" fill="rgb(137, 142, 159)" fill-opacity="0.43"/><path d="M343,185L369,192L349,178Z" fill="rgb(0, 0, 2)" fill-opacity="0.62"/><path d="M432,200L411,198L446,196Z" fill="rgb(115, 134, 164)" fill-opacity="0.50"/><path d="M329,60L270,91L366,91Z" fill="rgb(50, 105, 169)" fill-opacity="0.38"/><path d="M281,194L266,185L248,182Z" fill="rgb(204, 189, 192)" fill-opacity="0.52"/><path d="M52,113L116,113L141,154Z" fill="rgb(59, 94, 26)" fill-opacity="0.50"/><path d="M467,176L476,181L461,176Z" fill="rgb(235, 255, 156)" fill-opacity="0.50"/><path d="M435,188L400,181L407,168Z" fill="rgb(0, 0, 6)" fill-opacity="0.66"/><path d="M421,207L445,210L421,217Z" fill="rgb(177, 135, 142)" fill-opacity="0.42"/><path d="M403,81L360,62L411,63Z" fill="rgb(124, 167, 188)" fill-opacity="0.47"/><path d="M60,166L63,163L77,164Z" fill="rgb(222, 234, 243)" fill-opacity="0.50"/><path d="M379,161L381,168L384,152Z" fill="rgb(98, 114, 163)" fill-opacity="0.49"/><path d="M111,200L91,207L66,200Z" fill="rgb(74, 94, 70)" fill-opacity="0.51"/><path d="M114,206L104,213L90,205Z" fill="rgb(218, 204, 213)" fill-opacity="0.42"/><path d="M402,106L381,93L410,98Z" fill="rgb(7, 9, 19)" fill-opacity="0.57"/><path d="M45,149L24,150L52,140Z" fill="rgb(6, 20, 6)" fill-opacity="0.70"/><path d="M307,173L315,186L273,173Z" fill="rgb(72, 97, 52)" fill-opacity="0.56"/><path d="M316,159L292,144L331,156Z" fill="rgb(6, 18, 7)" fill-opacity="0.50"/><path d="M474,149L455,148L475,142Z" fill="rgb(89, 112, 25)" fill-opacity="0.53"/><path d="M266,120L222,122L244,161Z" fill="rgb(30, 60, 25)" fill-opacity="0.49"/><path d="M386,110L371,104L363,127Z" fill="rgb(132, 157, 114)" fill-opacity="0.52"/><path d="M105,172L133,179L140,172Z" fill="rgb(81, 78, 73)" fill-opacity="0.52"/><path d="M117,202L127,207L100,206Z" fill="rgb(204, 197, 196)" fill-opacity="0.54"/><path d="M501,171L520,173L508,178Z" fill="rgb(219, 255, 68)" fill-opacity="0.46"/><path d="M145,178L132,176L138,185Z" fill="rgb(207, 201, 209)" fill-opacity="0.37"/><path d="M412,149L392,143L400,155Z" fill="rgb(0, 0, 0)" fill-opacity="0.49"/><path d="M112,158L106,131L93,141Z" fill="rgb(13, 33, 0)" fill-opacity="0.54"/><path d="M451,164L472,160L460,170Z" fill="rgb(224, 255, 246)" fill-opacity="0.40"/><path d="M414,120L432,77L396,113Z" fill="rgb(101, 142, 159)" fill-opacity="0.50"/><path d="M93,195L90,201L105,197Z" fill="rgb(176, 169, 179)" fill-opacity="0.48"/><path d="M405,91L417,65L389,98Z" fill="rgb(0, 2, 15)" fill-opacity="0.49"/><path d="M240,177L277,174L272,182Z" fill="rgb(74, 83, 40)" fill-opacity="0.48"/><path d="M92,194L43,195L51,178Z" fill="rgb(68, 100, 40)" fill-opacity="0.56"/><path d="M392,119L404,124L389,114Z" fill="rgb(103, 112, 110)" fill-opacity="0.55"/><path d="M189,187L182,205L217,189Z" fill="rgb(180, 173, 176)" fill-opacity="0.59"/><path d="M388,95L352,109L380,94Z" fill="rgb(40, 58, 85)" fill-opacity="0.44"/><path d="M490,180L484,173L474,186Z" fill="rgb(0, 0, 14)" fill-opacity="0.41"/><path d="M412,88L416,95L404,101Z" fill="rgb(0, 0, 0)" fill-opacity="0.39"/><path d="M398,87L401,80L395,86Z" fill="rgb(165, 204, 195)" fill-opacity="0.50"/><path d="M414,143L412,132L451,145Z" fill="rgb(41, 56, 0)" fill-opacity="0.45"/><path d="M302,197L341,190L337,180Z" fill="rgb(130, 123, 107)" fill-opacity="0.50"/><path d="M226,203L240,210L232,201Z" fill="rgb(216, 214, 223)" fill-opacity="0.60"/><path d="M183,76L256,89L154,95Z" fill="rgb(63, 117, 166)" fill-opacity="0.74"/><path d="M37,58L58,91L-6,85Z" fill="rgb(120, 175, 199)" fill-opacity="0.44"/><path d="M46,164L5,161L13,148Z" fill="rgb(77, 82, 43)" fill-opacity="0.68"/><path d="M316,169L295,166L300,174Z" fill="rgb(181, 165, 138)" fill-opacity="0.47"/><path d="M419,41L348,50L409,68Z" fill="rgb(159, 221, 255)" fill-opacity="0.47"/><path d="M411,204L407,191L398,185Z" fill="rgb(3, 5, 13)" fill-opacity="0.57"/><path d="M418,149L412,138L449,158Z" fill="rgb(3, 9, 0)" fill-opacity="0.46"/><path d="M315,154L257,146L287,154Z" fill="rgb(22, 40, 18)" fill-opacity="0.66"/><path d="M146,186L124,196L125,181Z" fill="rgb(74, 95, 57)" fill-opacity="0.42"/><path d="M143,164L149,157L118,151Z" fill="rgb(69, 99, 23)" fill-opacity="0.56"/><path d="M241,188L255,179L230,179Z" fill="rgb(32, 62, 17)" fill-opacity="0.43"/><path d="M124,195L134,198L193,186Z" fill="rgb(197, 190, 191)" fill-opacity="0.44"/><path d="M539,179L512,183L500,179Z" fill="rgb(32, 70, 0)" fill-opacity="0.68"/><path d="M482,33L517,47L453,46Z" fill="rgb(216, 255, 255)" fill-opacity="0.57"/><path d="M380,167L394,141L385,178Z" fill="rgb(12, 27, 30)" fill-opacity="0.47"/><path d="M88,172L93,167L54,162Z" fill="rgb(188, 191, 194)" fill-opacity="0.40"/><path d="M69,155L46,167L32,162Z" fill="rgb(30, 55, 22)" fill-opacity="0.49"/><path d="M416,184L440,191L444,199Z" fill="rgb(134, 133, 105)" fill-opacity="0.46"/><path d="M397,166L392,172L404,170Z" fill="rgb(177, 189, 224)" fill-opacity="0.46"/><path d="M390,185L398,169L377,198Z" fill="rgb(30, 37, 51)" fill-opacity="0.50"/><path d="M161,211L137,207L92,298Z" fill="rgb(178, 167, 173)" fill-opacity="0.79"/><path d="M495,163L540,129L513,174Z" fill="rgb(32, 55, 20)" fill-opacity="0.60"/><path d="M340,141L367,156L380,127Z" fill="rgb(21, 54, 52)" fill-opacity="0.51"/><path d="M426,50L476,49L415,72Z" fill="rgb(122, 180, 224)" fill-opacity="0.57"/><path d="M263,165L236,160L262,170Z" fill="rgb(177, 185, 180)" fill-opacity="0.43"/><path d="M90,201L128,198L140,201Z" fill="rgb(13, 55, 8)" fill-opacity="0.31"/><path d="M125,211L128,204L136,213Z" fill="rgb(87, 73, 69)" fill-opacity="0.40"/><path d="M165,169L170,174L140,172Z" fill="rgb(189, 182, 178)" fill-opacity="0.46"/><path d="M413,140L404,135L402,147Z" fill="rgb(127, 139, 126)" fill-opacity="0.47"/><path d="M227,203L232,210L216,204Z" fill="rgb(67, 81, 46)" fill-opacity="0.38"/><path d="M254,136L258,164L280,163Z" fill="rgb(12, 27, 2)" fill-opacity="0.46"/><path d="M391,123L388,146L373,157Z" fill="rgb(0, 17, 38)" fill-opacity="0.41"/><path d="M283,75L285,90L307,67Z" fill="rgb(64, 118, 165)" fill-opacity="0.59"/><path d="M210,195L221,195L213,206Z" fill="rgb(125, 120, 95)" fill-opacity="0.44"/><path d="M208,159L194,160L201,166Z" fill="rgb(8, 9, 2)" fill-opacity="0.50"/><path d="M474,206L493,212L453,224Z" fill="rgb(225, 197, 204)" fill-opacity="0.29"/><path d="M383,177L363,189L375,174Z" fill="rgb(17, 24, 47)" fill-opacity="0.55"/><path d="M206,180L218,174L202,190Z" fill="rgb(200, 194, 180)" fill-opacity="0.40"/><path d="M402,168L401,177L395,164Z" fill="rgb(167, 178, 208)" fill-opacity="0.45"/><path d="M317,125L343,122L370,146Z" fill="rgb(34, 72, 68)" fill-opacity="0.52"/><path d="M442,101L488,134L420,114Z" fill="rgb(129, 161, 142)" fill-opacity="0.36"/><path d="M328,209L388,221L350,208Z" fill="rgb(144, 120, 118)" fill-opacity="0.67"/><path d="M268,210L251,211L249,223Z" fill="rgb(198, 180, 180)" fill-opacity="0.54"/><path d="M168,148L147,146L165,157Z" fill="rgb(75, 103, 24)" fill-opacity="0.50"/><path d="M456,172L444,169L478,183Z" fill="rgb(205, 255, 77)" fill-opacity="0.54"/><path d="M95,209L95,212L80,209Z" fill="rgb(245, 245, 252)" fill-opacity="0.50"/><path d="M89,93L-2,106L-8,84Z" fill="rgb(36, 72, 87)" fill-opacity="0.47"/><path d="M434,141L426,115L441,124Z" fill="rgb(110, 139, 77)" fill-opacity="0.42"/><path d="M427,152L421,146L415,150Z" fill="rgb(0, 0, 0)" fill-opacity="0.50"/><path d="M135,167L104,169L118,173Z" fill="rgb(158, 174, 144)" fill-opacity="0.41"/><path d="M355,168L350,158L334,167Z" fill="rgb(0, 0, 15)" fill-opacity="0.45"/><path d="M357,177L375,181L362,168Z" fill="rgb(156, 147, 143)" fill-opacity="0.43"/><path d="M230,118L238,132L183,118Z" fill="rgb(0, 33, 81)" fill-opacity="0.32"/><path d="M465,172L479,183L472,172Z" fill="rgb(22, 15, 18)" fill-opacity="0.50"/><path d="M65,167L94,181L61,181Z" fill="rgb(106, 118, 94)" fill-opacity="0.60"/><path d="M334,122L381,135L325,109Z" fill="rgb(105, 132, 78)" fill-opacity="0.58"/><path d="M284,103L229,96L299,95Z" fill="rgb(69, 108, 130)" fill-opacity="0.64"/><path d="M184,165L180,170L205,170Z" fill="rgb(172, 172, 165)" fill-opacity="0.38"/><path d="M315,163L306,158L316,160Z" fill="rgb(142, 141, 138)" fill-opacity="0.50"/><path d="M16,182L7,179L11,179Z" fill="rgb(203, 203, 212)" fill-opacity="0.43"/><path d="M411,147L410,136L416,147Z" fill="rgb(115, 137, 77)" fill-opacity="0.51"/><path d="M153,195L170,200L168,218Z" fill="rgb(112, 117, 110)" fill-opacity="0.40"/><path d="M498,209L455,228L521,211Z" fill="rgb(159, 139, 124)" fill-opacity="0.60"/><path d="M301,99L302,93L352,104Z" fill="rgb(69, 104, 131)" fill-opacity="0.52"/><path d="M380,141L397,145L406,141Z" fill="rgb(43, 51, 105)" fill-opacity="0.46"/><path d="M473,172L470,167L451,165Z" fill="rgb(150, 202, 185)" fill-opacity="0.52"/><path d="M429,209L415,206L402,207Z" fill="rgb(128, 136, 101)" fill-opacity="0.51"/><path d="M183,192L185,199L201,206Z" fill="rgb(153, 144, 142)" fill-opacity="0.60"/><path d="M67,196L46,207L50,196Z" fill="rgb(204, 196, 197)" fill-opacity="0.45"/><path d="M485,153L528,166L477,145Z" fill="rgb(79, 103, 48)" fill-opacity="0.47"/><path d="M444,188L493,187L486,194Z" fill="rgb(56, 71, 45)" fill-opacity="0.57"/><path d="M255,184L238,192L255,214Z" fill="rgb(181, 169, 167)" fill-opacity="0.50"/><path d="M70,135L43,107L27,126Z" fill="rgb(11, 32, 4)" fill-opacity="0.47"/><path d="M12,193L1,192L-6,185Z" fill="rgb(232, 223, 243)" fill-opacity="0.43"/><path d="M227,133L246,160L224,159Z" fill="rgb(15, 34, 7)" fill-opacity="0.53"/><path d="M427,85L444,106L407,101Z" fill="rgb(63, 112, 150)" fill-opacity="0.57"/><path d="M506,163L496,148L505,171Z" fill="rgb(0, 19, 0)" fill-opacity="0.58"/><path d="M257,182L279,190L235,192Z" fill="rgb(187, 173, 175)" fill-opacity="0.45"/><path d="M498,187L521,186L491,178Z" fill="rgb(249, 250, 253)" fill-opacity="0.51"/><path d="M162,187L152,182L136,188Z" fill="rgb(77, 89, 67)" fill-opacity="0.51"/><path d="M134,108L117,116L79,105Z" fill="rgb(5, 35, 58)" fill-opacity="0.45"/><path d="M359,122L364,102L359,107Z" fill="rgb(41, 51, 47)" fill-opacity="0.48"/><path d="M24,164L50,168L22,161Z" fill="rgb(152, 159, 147)" fill-opacity="0.61"/><path d="M370,190L401,203L364,210Z" fill="rgb(6, 16, 11)" fill-opacity="0.50"/><path d="M379,181L385,179L378,187Z" fill="rgb(167, 192, 222)" fill-opacity="0.47"/><path d="M265,126L281,106L274,126Z" fill="rgb(106, 141, 98)" fill-opacity="0.50"/><path d="M73,209L62,209L78,200Z" fill="rgb(220, 224, 225)" fill-opacity="0.43"/><path d="M208,108L203,101L141,97Z" fill="rgb(125, 162, 122)" fill-opacity="0.53"/><path d="M160,62L100,54L101,85Z" fill="rgb(151, 202, 220)" fill-opacity="0.43"/><path d="M101,52L449,-83L-97,57Z" fill="rgb(255, 255, 255)" fill-opacity="0.92"/><path d="M59,165L60,163L56,163Z" fill="rgb(226, 242, 255)" fill-opacity="0.50"/><path d="M453,134L436,130L433,133Z" fill="rgb(7, 19, 0)" fill-opacity="0.45"/><path d="M187,164L169,172L186,152Z" fill="rgb(40, 39, 15)" fill-opacity="0.40"/><path d="M44,176L22,175L57,190Z" fill="rgb(81, 108, 68)" fill-opacity="0.58"/><path d="M383,82L328,80L351,58Z" fill="rgb(113, 161, 187)" fill-opacity="0.47"/><path d="M480,168L494,180L478,171Z" fill="rgb(188, 211, 251)" fill-opacity="0.44"/><path d="M24,209L20,211L81,210Z" fill="rgb(104, 112, 113)" fill-opacity="0.65"/><path d="M234,158L232,162L258,165Z" fill="rgb(217, 202, 241)" fill-opacity="0.19"/><path d="M107,149L111,155L88,158Z" fill="rgb(92, 141, 33)" fill-opacity="0.34"/><path d="M364,193L337,183L364,214Z" fill="rgb(77, 82, 52)" fill-opacity="0.58"/><path d="M465,70L432,73L414,83Z" fill="rgb(120, 164, 184)" fill-opacity="0.51"/><path d="M101,131L111,138L100,116Z" fill="rgb(79, 113, 38)" fill-opacity="0.57"/><path d="M499,130L475,145L481,130Z" fill="rgb(34, 39, 0)" fill-opacity="0.37"/><path d="M151,210L147,204L161,210Z" fill="rgb(48, 35, 56)" fill-opacity="0.49"/><path d="M209,205L213,188L189,188Z" fill="rgb(193, 183, 186)" fill-opacity="0.43"/><path d="M188,188L262,185L187,185Z" fill="rgb(66, 77, 52)" fill-opacity="0.33"/><path d="M117,209L112,209L115,216Z" fill="rgb(67, 57, 69)" fill-opacity="0.51"/><path d="M486,153L494,162L443,156Z" fill="rgb(4, 14, 13)" fill-opacity="0.44"/><path d="M394,180L394,163L392,171Z" fill="rgb(14, 13, 25)" fill-opacity="0.45"/><path d="M371,93L369,98L334,92Z" fill="rgb(145, 171, 176)" fill-opacity="0.63"/><path d="M180,209L193,202L167,203Z" fill="rgb(221, 223, 235)" fill-opacity="0.43"/><path d="M295,181L310,182L291,188Z" fill="rgb(151, 140, 130)" fill-opacity="0.50"/><path d="M449,101L467,126L475,105Z" fill="rgb(96, 129, 136)" fill-opacity="0.55"/><path d="M36,157L56,134L63,163Z" fill="rgb(45, 70, 7)" fill-opacity="0.44"/><path d="M508,202L513,182L567,175Z" fill="rgb(244, 250, 255)" fill-opacity="0.26"/><path d="M268,94L253,90L286,94Z" fill="rgb(161, 189, 176)" fill-opacity="0.51"/><path d="M120,188L117,195L133,193Z" fill="rgb(80, 99, 65)" fill-opacity="0.61"/><path d="M389,179L395,197L397,184Z" fill="rgb(22, 19, 18)" fill-opacity="0.51"/><path d="M399,150L384,147L391,155Z" fill="rgb(31, 55, 51)" fill-opacity="0.54"/><path d="M113,171L115,178L75,175Z" fill="rgb(60, 66, 40)" fill-opacity="0.47"/><path d="M394,180L414,184L416,200Z" fill="rgb(98, 110, 89)" fill-opacity="0.45"/><path d="M194,179L169,181L179,175Z" fill="rgb(41, 64, 37)" fill-opacity="0.41"/><path d="M409,95L400,98L412,84Z" fill="rgb(86, 113, 145)" fill-opacity="0.56"/><path d="M76,185L64,183L71,179Z" fill="rgb(174, 186, 143)" fill-opacity="0.41"/><path d="M301,70L324,67L303,51Z" fill="rgb(134, 185, 208)" fill-opacity="0.50"/><path d="M349,196L343,208L364,211Z" fill="rgb(64, 67, 39)" fill-opacity="0.49"/><path d="M397,109L390,94L397,122Z" fill="rgb(0, 0, 10)" fill-opacity="0.53"/><path d="M450,146L455,137L439,145Z" fill="rgb(0, 9, 0)" fill-opacity="0.54"/><path d="M100,183L134,178L117,175Z" fill="rgb(166, 168, 163)" fill-opacity="0.41"/><path d="M183,185L234,183L183,179Z" fill="rgb(196, 191, 185)" fill-opacity="0.26"/><path d="M411,173L418,168L405,166Z" fill="rgb(102, 109, 154)" fill-opacity="0.45"/><path d="M233,186L229,184L250,183Z" fill="rgb(34, 59, 17)" fill-opacity="0.55"/><path d="M354,202L337,204L349,197Z" fill="rgb(26, 57, 23)" fill-opacity="0.48"/><path d="M308,205L312,216L321,205Z" fill="rgb(170, 152, 153)" fill-opacity="0.53"/><path d="M310,148L305,116L315,118Z" fill="rgb(33, 61, 20)" fill-opacity="0.52"/><path d="M186,100L171,90L193,93Z" fill="rgb(107, 151, 156)" fill-opacity="0.50"/><path d="M252,95L261,57L262,95Z" fill="rgb(123, 168, 182)" fill-opacity="0.75"/><path d="M254,49L529,-8L85,22Z" fill="rgb(255, 255, 255)" fill-opacity="0.79"/><path d="M280,96L297,94L317,100Z" fill="rgb(54, 97, 133)" fill-opacity="0.50"/><path d="M204,144L181,117L198,124Z" fill="rgb(7, 39, 21)" fill-opacity="0.52"/><path d="M294,153L279,159L303,161Z" fill="rgb(115, 121, 112)" fill-opacity="0.47"/><path d="M426,167L418,166L457,183Z" fill="rgb(34, 41, 2)" fill-opacity="0.46"/><path d="M393,193L388,198L382,190Z" fill="rgb(94, 112, 154)" fill-opacity="0.46"/><path d="M469,146L479,128L461,148Z" fill="rgb(92, 109, 46)" fill-opacity="0.53"/><path d="M422,197L409,195L410,199Z" fill="rgb(100, 120, 154)" fill-opacity="0.44"/><path d="M454,172L455,171L477,181Z" fill="rgb(232, 236, 228)" fill-opacity="0.47"/><path d="M165,111L118,112L173,120Z" fill="rgb(4, 34, 54)" fill-opacity="0.50"/><path d="M277,163L277,167L252,165Z" fill="rgb(165, 168, 159)" fill-opacity="0.51"/><path d="M415,72L417,49L403,82Z" fill="rgb(1, 9, 31)" fill-opacity="0.49"/><path d="M363,190L369,182L397,192Z" fill="rgb(33, 42, 67)" fill-opacity="0.56"/><path d="M270,179L294,169L295,199Z" fill="rgb(81, 107, 63)" fill-opacity="0.61"/><path d="M220,95L182,93L247,109Z" fill="rgb(117, 154, 140)" fill-opacity="0.41"/><path d="M109,83L194,72L153,93Z" fill="rgb(124, 166, 179)" fill-opacity="0.55"/><path d="M464,164L476,175L464,166Z" fill="rgb(106, 158, 56)" fill-opacity="0.46"/><path d="M512,45L486,50L540,67Z" fill="rgb(147, 206, 252)" fill-opacity="0.53"/><path d="M451,207L437,200L458,195Z" fill="rgb(0, 0, 2)" fill-opacity="0.60"/><path d="M168,179L153,178L212,166Z" fill="rgb(130, 140, 118)" fill-opacity="0.64"/><path d="M155,207L155,205L192,208Z" fill="rgb(180, 173, 182)" fill-opacity="0.65"/><path d="M427,44L565,-50L393,41Z" fill="rgb(255, 255, 255)" fill-opacity="0.50"/><path d="M475,186L485,175L484,188Z" fill="rgb(0, 0, 0)" fill-opacity="0.46"/><path d="M413,103L466,111L450,131Z" fill="rgb(123, 155, 137)" fill-opacity="0.46"/><path d="M399,179L399,167L401,177Z" fill="rgb(162, 174, 198)" fill-opacity="0.50"/><path d="M382,168L377,176L379,160Z" fill="rgb(71, 87, 132)" fill-opacity="0.44"/><path d="M479,179L481,167L476,180Z" fill="rgb(187, 200, 212)" fill-opacity="0.54"/><path d="M89,97L109,94L58,88Z" fill="rgb(101, 131, 112)" fill-opacity="0.59"/><path d="M492,168L498,178L512,172Z" fill="rgb(237, 255, 240)" fill-opacity="0.39"/><path d="M359,172L363,179L353,173Z" fill="rgb(181, 172, 166)" fill-opacity="0.52"/><path d="M484,216L443,207L483,231Z" fill="rgb(189, 152, 162)" fill-opacity="0.37"/><path d="M3,87L54,85L-28,48Z" fill="rgb(137, 187, 208)" fill-opacity="0.40"/><path d="M110,148L91,152L108,140Z" fill="rgb(2, 16, 4)" fill-opacity="0.48"/><path d="M417,142L415,124L421,144Z" fill="rgb(112, 136, 43)" fill-opacity="0.48"/><path d="M429,159L439,158L421,151Z" fill="rgb(248, 248, 255)" fill-opacity="0.56"/><path d="M6,207L8,215L-15,208Z" fill="rgb(94, 96, 112)" fill-opacity="0.51"/><path d="M258,197L252,216L237,214Z" fill="rgb(198, 179, 185)" fill-opacity="0.35"/><path d="M403,101L390,118L395,83Z" fill="rgb(3, 6, 16)" fill-opacity="0.41"/><path d="M475,134L473,117L483,133Z" fill="rgb(127, 158, 111)" fill-opacity="0.56"/><path d="M380,158L378,175L388,146Z" fill="rgb(82, 97, 140)" fill-opacity="0.39"/><path d="M436,176L416,166L404,167Z" fill="rgb(115, 122, 159)" fill-opacity="0.38"/><path d="M395,143L399,142L388,131Z" fill="rgb(77, 90, 140)" fill-opacity="0.46"/><path d="M354,199L312,201L332,190Z" fill="rgb(49, 73, 40)" fill-opacity="0.55"/><path d="M394,165L395,158L422,161Z" fill="rgb(25, 35, 7)" fill-opacity="0.65"/><path d="M338,82L332,90L352,88Z" fill="rgb(44, 99, 154)" fill-opacity="0.50"/><path d="M170,192L147,195L129,186Z" fill="rgb(186, 182, 189)" fill-opacity="0.46"/><path d="M290,195L290,205L278,199Z" fill="rgb(116, 111, 96)" fill-opacity="0.52"/><path d="M148,151L132,172L144,167Z" fill="rgb(83, 100, 49)" fill-opacity="0.46"/><path d="M8,208L10,205L-8,205Z" fill="rgb(213, 218, 223)" fill-opacity="0.59"/><path d="M378,98L391,112L359,113Z" fill="rgb(119, 150, 135)" fill-opacity="0.53"/><path d="M100,188L58,193L67,184Z" fill="rgb(65, 100, 17)" fill-opacity="0.41"/><path d="M564,84L493,58L430,92Z" fill="rgb(69, 121, 170)" fill-opacity="0.54"/><path d="M484,53L439,48L490,47Z" fill="rgb(94, 174, 255)" fill-opacity="0.47"/><path d="M426,54L447,45L381,48Z" fill="rgb(157, 222, 255)" fill-opacity="0.74"/><path d="M470,57L457,75L504,54Z" fill="rgb(93, 146, 189)" fill-opacity="0.58"/><path d="M389,174L387,179L396,180Z" fill="rgb(139, 148, 168)" fill-opacity="0.55"/><path d="M84,-74L74,57L95,54Z" fill="rgb(255, 255, 255)" fill-opacity="0.56"/><path d="M405,205L426,199L392,198Z" fill="rgb(2, 4, 16)" fill-opacity="0.40"/><path d="M115,166L109,155L125,156Z" fill="rgb(0, 4, 0)" fill-opacity="0.53"/><path d="M469,207L470,198L505,205Z" fill="rgb(56, 85, 37)" fill-opacity="0.46"/><path d="M386,96L392,101L371,103Z" fill="rgb(83, 120, 138)" fill-opacity="0.55"/><path d="M135,142L120,142L132,146Z" fill="rgb(106, 134, 42)" fill-opacity="0.47"/><path d="M268,195L255,197L249,192Z" fill="rgb(92, 111, 79)" fill-opacity="0.52"/><path d="M318,116L330,102L356,112Z" fill="rgb(133, 159, 123)" fill-opacity="0.53"/><path d="M74,176L42,168L35,175Z" fill="rgb(154, 156, 161)" fill-opacity="0.46"/><path d="M44,167L50,173L53,164Z" fill="rgb(144, 153, 180)" fill-opacity="0.50"/><path d="M315,180L332,195L321,196Z" fill="rgb(146, 139, 129)" fill-opacity="0.43"/><path d="M388,85L387,89L400,84Z" fill="rgb(203, 244, 193)" fill-opacity="0.47"/><path d="M506,128L509,153L490,125Z" fill="rgb(131, 160, 116)" fill-opacity="0.49"/><path d="M295,208L252,220L298,197Z" fill="rgb(192, 165, 171)" fill-opacity="0.35"/><path d="M337,127L325,132L378,157Z" fill="rgb(15, 45, 45)" fill-opacity="0.51"/><path d="M257,60L343,56L220,46Z" fill="rgb(131, 193, 237)" fill-opacity="0.49"/><path d="M319,184L320,173L336,181Z" fill="rgb(84, 87, 55)" fill-opacity="0.43"/><path d="M393,156L391,175L389,160Z" fill="rgb(210, 218, 237)" fill-opacity="0.47"/><path d="M434,143L436,132L446,151Z" fill="rgb(66, 90, 26)" fill-opacity="0.57"/><path d="M230,194L220,179L230,183Z" fill="rgb(152, 148, 138)" fill-opacity="0.53"/><path d="M193,196L226,204L172,201Z" fill="rgb(161, 152, 151)" fill-opacity="0.55"/><path d="M358,74L401,88L406,70Z" fill="rgb(79, 129, 169)" fill-opacity="0.37"/><path d="M222,78L218,46L190,44Z" fill="rgb(135, 184, 212)" fill-opacity="0.62"/><path d="M31,132L2,122L8,143Z" fill="rgb(55, 99, 27)" fill-opacity="0.36"/><path d="M222,200L219,215L208,200Z" fill="rgb(197, 178, 177)" fill-opacity="0.34"/><path d="M222,196L212,201L209,199Z" fill="rgb(84, 89, 61)" fill-opacity="0.49"/><path d="M25,136L39,138L27,141Z" fill="rgb(0, 25, 2)" fill-opacity="0.49"/><path d="M113,129L114,119L157,116Z" fill="rgb(65, 99, 41)" fill-opacity="0.46"/><path d="M-26,197L-4,206L20,194Z" fill="rgb(46, 92, 55)" fill-opacity="0.25"/><path d="M395,163L406,167L380,161Z" fill="rgb(40, 44, 65)" fill-opacity="0.55"/><path d="M321,160L321,157L314,160Z" fill="rgb(5, 12, 0)" fill-opacity="0.50"/><path d="M504,191L505,196L509,183Z" fill="rgb(244, 246, 254)" fill-opacity="0.54"/><path d="M477,183L473,184L456,177Z" fill="rgb(15, 73, 0)" fill-opacity="0.51"/><path d="M104,212L46,218L91,211Z" fill="rgb(122, 117, 126)" fill-opacity="0.52"/><path d="M106,194L115,196L112,190Z" fill="rgb(200, 189, 180)" fill-opacity="0.47"/><path d="M456,206L458,194L480,211Z" fill="rgb(118, 127, 98)" fill-opacity="0.55"/><path d="M5,143L11,151L20,137Z" fill="rgb(22, 37, 14)" fill-opacity="0.53"/><path d="M484,132L488,136L475,137Z" fill="rgb(7, 14, 0)" fill-opacity="0.53"/><path d="M174,187L131,185L194,189Z" fill="rgb(116, 116, 105)" fill-opacity="0.52"/><path d="M395,190L384,196L390,195Z" fill="rgb(128, 144, 164)" fill-opacity="0.50"/><path d="M279,165L281,169L302,167Z" fill="rgb(178, 172, 166)" fill-opacity="0.50"/><path d="M389,94L337,91L356,84Z" fill="rgb(55, 104, 155)" fill-opacity="0.47"/><path d="M336,182L332,184L328,193Z" fill="rgb(172, 148, 146)" fill-opacity="0.43"/><path d="M251,66L160,39L127,46Z" fill="rgb(130, 183, 223)" fill-opacity="0.48"/><path d="M424,157L413,152L405,156Z" fill="rgb(119, 190, 0)" fill-opacity="0.48"/><path d="M381,165L382,172L389,164Z" fill="rgb(0, 0, 4)" fill-opacity="0.46"/><path d="M182,137L197,136L193,147Z" fill="rgb(19, 48, 5)" fill-opacity="0.49"/><path d="M367,191L372,168L364,233Z" fill="rgb(1, 3, 10)" fill-opacity="0.48"/><path d="M407,206L430,266L374,214Z" fill="rgb(72, 70, 56)" fill-opacity="0.86"/><path d="M49,100L80,116L18,103Z" fill="rgb(39, 75, 65)" fill-opacity="0.64"/><path d="M488,189L502,169L485,188Z" fill="rgb(197, 201, 233)" fill-opacity="0.46"/><path d="M449,156L378,144L441,148Z" fill="rgb(3, 4, 5)" fill-opacity="0.47"/><path d="M81,210L60,210L86,215Z" fill="rgb(146, 141, 146)" fill-opacity="0.57"/><path d="M236,173L251,171L238,168Z" fill="rgb(162, 149, 153)" fill-opacity="0.62"/><path d="M449,163L448,167L458,171Z" fill="rgb(47, 88, 1)" fill-opacity="0.48"/><path d="M438,163L472,162L481,167Z" fill="rgb(240, 255, 239)" fill-opacity="0.47"/><path d="M5,164L-60,139L6,154Z" fill="rgb(146, 127, 111)" fill-opacity="0.39"/><path d="M368,182L368,186L353,180Z" fill="rgb(116, 134, 169)" fill-opacity="0.45"/><path d="M53,169L49,158L60,172Z" fill="rgb(33, 35, 51)" fill-opacity="0.44"/><path d="M374,98L361,104L321,98Z" fill="rgb(49, 89, 126)" fill-opacity="0.50"/><path d="M444,130L422,138L446,125Z" fill="rgb(58, 79, 0)" fill-opacity="0.45"/><path d="M24,131L23,109L37,123Z" fill="rgb(0, 19, 8)" fill-opacity="0.49"/><path d="M146,185L153,171L162,168Z" fill="rgb(155, 157, 153)" fill-opacity="0.59"/><path d="M28,149L59,156L20,157Z" fill="rgb(59, 82, 20)" fill-opacity="0.59"/><path d="M318,181L303,174L330,161Z" fill="rgb(127, 124, 98)" fill-opacity="0.61"/><path d="M180,171L205,180L215,173Z" fill="rgb(80, 102, 64)" fill-opacity="0.56"/><path d="M363,180L356,187L358,181Z" fill="rgb(9, 19, 29)" fill-opacity="0.49"/><path d="M445,117L412,99L401,107Z" fill="rgb(129, 161, 145)" fill-opacity="0.64"/><path d="M497,173L484,174L485,168Z" fill="rgb(152, 227, 0)" fill-opacity="0.41"/><path d="M249,47L243,51L210,47Z" fill="rgb(91, 159, 225)" fill-opacity="0.43"/><path d="M292,92L263,92L272,98Z" fill="rgb(173, 190, 182)" fill-opacity="0.37"/><path d="M399,86L435,92L386,85Z" fill="rgb(111, 148, 159)" fill-opacity="0.51"/><path d="M135,167L128,177L127,167Z" fill="rgb(171, 173, 161)" fill-opacity="0.47"/><path d="M333,211L333,237L318,208Z" fill="rgb(78, 101, 59)" fill-opacity="0.48"/><path d="M108,174L94,197L70,178Z" fill="rgb(106, 126, 87)" fill-opacity="0.46"/><path d="M12,185L-3,188L13,188Z" fill="rgb(199, 194, 199)" fill-opacity="0.52"/><path d="M387,107L392,120L398,124Z" fill="rgb(88, 98, 105)" fill-opacity="0.59"/><path d="M73,162L68,163L78,173Z" fill="rgb(179, 185, 189)" fill-opacity="0.56"/><path d="M511,192L503,206L481,206Z" fill="rgb(64, 83, 59)" fill-opacity="0.48"/><path d="M156,116L200,137L125,135Z" fill="rgb(44, 77, 30)" fill-opacity="0.57"/><path d="M37,211L52,217L22,227Z" fill="rgb(247, 242, 247)" fill-opacity="0.48"/><path d="M52,204L29,205L36,199Z" fill="rgb(74, 86, 73)" fill-opacity="0.46"/><path d="M323,201L320,206L338,208Z" fill="rgb(161, 135, 138)" fill-opacity="0.45"/><path d="M288,92L338,97L350,93Z" fill="rgb(181, 199, 196)" fill-opacity="0.33"/><path d="M397,191L402,195L402,191Z" fill="rgb(231, 231, 255)" fill-opacity="0.51"/><path d="M378,206L382,194L377,226Z" fill="rgb(77, 87, 59)" fill-opacity="0.51"/><path d="M103,201L120,202L107,195Z" fill="rgb(68, 86, 66)" fill-opacity="0.46"/><path d="M371,69L381,47L353,72Z" fill="rgb(148, 197, 222)" fill-opacity="0.48"/><path d="M328,157L323,161L330,161Z" fill="rgb(137, 142, 123)" fill-opacity="0.41"/></svg>